<svg xmlns="http://www.w3.org/2000/svg" viewBox="0 0 891.73 304.81"><defs><style>.cls-1{fill:#3b8df9;}.cls-2{font-size:32.82px;font-family:ProximaNova-Regular, Proxima Nova;letter-spacing:0.55em;}.cls-11,.cls-2{fill:#161615;}.cls-3{letter-spacing:0.53em;}.cls-4{letter-spacing:0.6em;}.cls-5{letter-spacing:0.6em;}.cls-6{letter-spacing:0.57em;}.cls-7{letter-spacing:0.59em;}.cls-8{letter-spacing:0.6em;}.cls-9{letter-spacing:0.52em;}.cls-10{letter-spacing:0.56em;}.cls-12{fill:none;}</style></defs><title>Asset 3</title><g id="Layer_2" data-name="Layer 2"><g id="Layer_1-2" data-name="Layer 1"><circle class="cls-1" cx="166.74" cy="23.88" r="5.93"/><circle class="cls-1" cx="126.53" cy="23.88" r="5.93"/><circle class="cls-1" cx="5.93" cy="23.88" r="5.93"/><circle class="cls-1" cx="46.13" cy="23.88" r="5.93"/><circle class="cls-1" cx="86.33" cy="23.88" r="5.93"/><text class="cls-2" transform="translate(6.27 295.88)">V<tspan class="cls-3" x="39.52" y="0">A</tspan><tspan class="cls-4" x="78.61" y="0">T</tspan><tspan class="cls-5" x="116.91" y="0">SIM </tspan><tspan class="cls-6" x="257.78" y="0">A</tspan><tspan class="cls-5" x="298.21" y="0">U</tspan><tspan class="cls-7" x="340.88" y="0">S</tspan><tspan class="cls-8" x="379.61" y="0">TRALIA </tspan><tspan class="cls-9" x="632.37" y="0">P</tspan><tspan class="cls-10" x="668.8" y="0">A</tspan><tspan class="cls-5" x="708.87" y="0">CIFIC</tspan></text><path class="cls-11" d="M72.19,198.5a15.75,15.75,0,0,1-8.61-2.38,14.46,14.46,0,0,1-5.64-6.51L6.45,69.31a15.45,15.45,0,0,1-1.52-6.07A15.24,15.24,0,0,1,20.06,48.11a14.2,14.2,0,0,1,8,2.42A15.39,15.39,0,0,1,33.66,57l38.05,92.16,37.88-92a15,15,0,0,1,24.49-4.5,17.3,17.3,0,0,1,3,4.91,14.67,14.67,0,0,1,1.08,5.53,16.84,16.84,0,0,1-1.37,6.43l-51.1,120a17.45,17.45,0,0,1-5.79,6.95A13.92,13.92,0,0,1,72.19,198.5Z"/><path class="cls-11" d="M123.35,49.11a13.72,13.72,0,0,1,10,4.24,15.93,15.93,0,0,1,2.77,4.58,13.65,13.65,0,0,1,1,5.15,15.74,15.74,0,0,1-1.3,6l-51.09,120a16.59,16.59,0,0,1-5.4,6.5,13,13,0,0,1-7.17,1.89,14.76,14.76,0,0,1-8.08-2.23,13.5,13.5,0,0,1-5.26-6.07L7.37,68.91a14.58,14.58,0,0,1-1.44-5.67A13.94,13.94,0,0,1,10,53.4a13.78,13.78,0,0,1,10.08-4.29,13.22,13.22,0,0,1,7.44,2.26,14.37,14.37,0,0,1,5.25,6L68,142.8l3.7,9,3.69-9,35.12-85.28a14.17,14.17,0,0,1,12.83-8.41m0-2a16.2,16.2,0,0,0-14.67,9.61L73.55,142l-1.84,4.49L69.86,142,34.6,56.65l0,0,0,0a16.19,16.19,0,0,0-6-6.86,15.17,15.17,0,0,0-8.54-2.59A15.68,15.68,0,0,0,8.57,52l0,0,0,0a15.78,15.78,0,0,0-4.59,11.2,16.41,16.41,0,0,0,1.61,6.48L57,190a15.61,15.61,0,0,0,6,7,16.74,16.74,0,0,0,9.14,2.53,14.94,14.94,0,0,0,8.24-2.2,18.38,18.38,0,0,0,6.1-7.27l0-.07,0-.07,51.1-120a17.82,17.82,0,0,0,1.45-6.83A15.52,15.52,0,0,0,138,57.19a18.29,18.29,0,0,0-3.11-5.14l0-.07-.06-.06a15.68,15.68,0,0,0-11.43-4.81Z"/><path class="cls-11" d="M203.08,200.11A73.5,73.5,0,0,1,174,194.2a76.69,76.69,0,0,1-40.75-40.74,75.89,75.89,0,0,1,.08-58.53,78.6,78.6,0,0,1,16.36-24.54A76.87,76.87,0,0,1,174,54a75.26,75.26,0,0,1,58.28-.08,76.53,76.53,0,0,1,24.36,16.42,77.71,77.71,0,0,1,16.3,24.48,75.43,75.43,0,0,1,5.83,29.43v60.07a14.61,14.61,0,0,1-4.46,10.82,14.08,14.08,0,0,1-10.83,4.63,14.29,14.29,0,0,1-9-2.86,14.1,14.1,0,0,1-5.09-7.73l-1.1-4-3.45,2.29A74.17,74.17,0,0,1,203.08,200.11Zm0-121.57A45.61,45.61,0,0,0,161,106.61a45.8,45.8,0,0,0,9.86,50,44.76,44.76,0,0,0,32.25,13.52,45.34,45.34,0,0,0,17.76-3.55,46.33,46.33,0,0,0,14.79-10,46.86,46.86,0,0,0,9.72-14.73,46.82,46.82,0,0,0,0-35.33,46.82,46.82,0,0,0-9.69-14.7,45.47,45.47,0,0,0-14.75-9.82A45.94,45.94,0,0,0,203.08,78.54Z"/><path class="cls-11" d="M203.08,49.11a73.34,73.34,0,0,1,28.79,5.76,75.56,75.56,0,0,1,24,16.2A76.86,76.86,0,0,1,272,95.23a74.38,74.38,0,0,1,5.75,29v60.07a13.66,13.66,0,0,1-4.17,10.12l0,0,0,0a13.09,13.09,0,0,1-10,4.25,13.31,13.31,0,0,1-8.41-2.65,13.1,13.1,0,0,1-4.73-7.21l-1.48-5.31-4.59,3a74,74,0,0,1-69.88,6.61,75.66,75.66,0,0,1-40.22-40.21,74.9,74.9,0,0,1,.08-57.75,77.6,77.6,0,0,1,16.15-24.23,75.85,75.85,0,0,1,24-16.15,72.7,72.7,0,0,1,28.71-5.83m0,122.06a46.39,46.39,0,0,0,18.15-3.63,47.32,47.32,0,0,0,15.11-10.16l0,0,0,0a47.9,47.9,0,0,0,9.89-15,47.81,47.81,0,0,0,0-36.11,48,48,0,0,0-9.89-15l0,0,0,0a46.81,46.81,0,0,0-66.22,66.19,45.74,45.74,0,0,0,33,13.81m0-124.06a74.75,74.75,0,0,0-29.49,6A78,78,0,0,0,149,69.68a79.53,79.53,0,0,0-16.57,24.86,76.88,76.88,0,0,0-.08,59.31,77.62,77.62,0,0,0,41.28,41.27,76,76,0,0,0,71.77-6.79l2.29-1.52.74,2.66A15.8,15.8,0,0,0,275,195.91l0,0,0,0a15.56,15.56,0,0,0,4.75-11.53V124.27a76.47,76.47,0,0,0-5.91-29.82,78.63,78.63,0,0,0-16.5-24.78A77.51,77.51,0,0,0,232.65,53a75.42,75.42,0,0,0-29.57-5.91Zm0,122.06A43.66,43.66,0,0,1,171.55,156a44.81,44.81,0,0,1,63.38-63.37,45.66,45.66,0,0,1,9.49,14.4,45.76,45.76,0,0,1,0,34.57,45.83,45.83,0,0,1-9.48,14.38,45.27,45.27,0,0,1-14.49,9.76,44.3,44.3,0,0,1-17.37,3.47Z"/><path class="cls-11" d="M652.64,200.11a73.5,73.5,0,0,1-29.1-5.91,76.69,76.69,0,0,1-40.75-40.74,75.89,75.89,0,0,1,.08-58.53,78.6,78.6,0,0,1,16.36-24.54A76.7,76.7,0,0,1,623.54,54a75.26,75.26,0,0,1,58.28-.08,76.64,76.64,0,0,1,24.36,16.42,77.71,77.71,0,0,1,16.3,24.48,75.46,75.46,0,0,1,5.83,29.43v60.07a14.61,14.61,0,0,1-4.46,10.82A14.08,14.08,0,0,1,713,199.79a14,14,0,0,1-14.11-10.59l-1.1-4-3.45,2.29A74.17,74.17,0,0,1,652.64,200.11Zm0-121.57a45.61,45.61,0,0,0-42.11,28.07,45.8,45.8,0,0,0,9.86,50,44.76,44.76,0,0,0,32.25,13.52,45.34,45.34,0,0,0,17.76-3.55,46.33,46.33,0,0,0,14.79-10,46.86,46.86,0,0,0,9.72-14.73,46.82,46.82,0,0,0,0-35.33,46.82,46.82,0,0,0-9.69-14.7,45.47,45.47,0,0,0-14.75-9.82A45.94,45.94,0,0,0,652.64,78.54Z"/><path class="cls-11" d="M652.64,49.11a73.34,73.34,0,0,1,28.79,5.76,75.56,75.56,0,0,1,24.05,16.2,76.75,76.75,0,0,1,16.08,24.16,74.38,74.38,0,0,1,5.75,29v60.07a13.66,13.66,0,0,1-4.17,10.12l0,0,0,0a13.09,13.09,0,0,1-10,4.25,13.33,13.33,0,0,1-8.41-2.65,13.1,13.1,0,0,1-4.73-7.21l-1.48-5.31-4.59,3a74,74,0,0,1-69.88,6.61,75.75,75.75,0,0,1-40.22-40.21,74.9,74.9,0,0,1,.08-57.75,77.6,77.6,0,0,1,16.15-24.23,75.85,75.85,0,0,1,24-16.15,72.7,72.7,0,0,1,28.71-5.83m0,122.06a46.39,46.39,0,0,0,18.15-3.63,47.32,47.32,0,0,0,15.11-10.16l0,0,0,0a47.84,47.84,0,0,0,9.89-15,47.66,47.66,0,0,0,0-36.1,48,48,0,0,0-9.89-15l0,0,0,0a46.53,46.53,0,0,0-15-10,47.07,47.07,0,0,0-18.21-3.62,46.77,46.77,0,0,0-33,79.82,45.74,45.74,0,0,0,33,13.81m0-124.06a74.75,74.75,0,0,0-29.49,6,78,78,0,0,0-24.63,16.58A79.53,79.53,0,0,0,582,94.54a76.88,76.88,0,0,0-.08,59.31,77.62,77.62,0,0,0,41.28,41.27,76,76,0,0,0,71.77-6.79l2.29-1.52.74,2.66a15.8,15.8,0,0,0,26.57,6.44l0,0,0,0a15.56,15.56,0,0,0,4.75-11.53V124.27a76.47,76.47,0,0,0-5.91-29.82,78.63,78.63,0,0,0-16.5-24.78A77.51,77.51,0,0,0,682.21,53a75.42,75.42,0,0,0-29.57-5.91Zm0,122.06A43.66,43.66,0,0,1,621.11,156a44.81,44.81,0,0,1,63.38-63.37A45.66,45.66,0,0,1,694,107a45.64,45.64,0,0,1,0,34.57,44.18,44.18,0,0,1-24,24.14,44.3,44.3,0,0,1-17.37,3.47Z"/><path class="cls-11" d="M816.84,200.11A79.38,79.38,0,0,1,787,194.42a74.79,74.79,0,0,1-24.7-16.13,75.81,75.81,0,0,1-16.74-24.14,72.4,72.4,0,0,1-6-29.23,76.57,76.57,0,0,1,5.92-29.84A75.56,75.56,0,0,1,762.12,70.4a78.93,78.93,0,0,1,83.41-17,67.29,67.29,0,0,1,23.24,15c3.78,3.89,5.61,8.07,5.61,12.79,0,4.28-1.76,7.81-5.38,10.8a18.18,18.18,0,0,1-5.08,3,13.36,13.36,0,0,1-4.67,1,16.35,16.35,0,0,1-8.6-2.78c-1.1-.66-3.39-2.2-8.36-6l.48-.9-.58.82a44.17,44.17,0,0,0-13.73-6.67,57.86,57.86,0,0,0-15-1.8l-.16-1,0,1A41.07,41.07,0,0,0,796.39,83a47,47,0,0,0-13.65,10.29,49.88,49.88,0,0,0-9,14.41,43.22,43.22,0,0,0-3.3,16.43,45,45,0,0,0,3.29,16.74,47.78,47.78,0,0,0,9.16,14.6,45.18,45.18,0,0,0,14.3,10.4,41.38,41.38,0,0,0,17.53,3.84,52.74,52.74,0,0,0,14.17-1.81,42.73,42.73,0,0,0,13.32-6.69l5-3.66a37.26,37.26,0,0,1,6.5-3.89,13.59,13.59,0,0,1,5.73-1.27,13.36,13.36,0,0,1,4.87,1.08,17.39,17.39,0,0,1,5,3c3.44,3,5.11,6.43,5.11,10.52a17.2,17.2,0,0,1-1.38,6.62,19.23,19.23,0,0,1-4.21,6.16,67.27,67.27,0,0,1-23.26,15A78.57,78.57,0,0,1,816.84,200.11Z"/><path class="cls-11" d="M816.84,49.11a77.53,77.53,0,0,1,28.33,5.23,66.15,66.15,0,0,1,22.89,14.79c3.58,3.68,5.32,7.63,5.32,12.08a12.48,12.48,0,0,1-5,10,17.18,17.18,0,0,1-4.8,2.83,12.27,12.27,0,0,1-4.31,1,15.26,15.26,0,0,1-8.07-2.63l0,0,0,0c-1-.61-3.29-2.14-8.21-5.9l-.06,0-.07-.05a45.27,45.27,0,0,0-14-6.81,59,59,0,0,0-15.28-1.84h-.16A42.14,42.14,0,0,0,796,82.09a48,48,0,0,0-14,10.5l0,0,0,0a50.85,50.85,0,0,0-9.13,14.67,44.25,44.25,0,0,0-3.38,16.81,45.89,45.89,0,0,0,3.36,17.11,48.34,48.34,0,0,0,9.36,14.9,46,46,0,0,0,14.61,10.64,42.36,42.36,0,0,0,18,3.93,53.54,53.54,0,0,0,14.44-1.85A43.93,43.93,0,0,0,842.81,162l0,0,0,0c.79-.59,2.3-1.71,4.9-3.61a36,36,0,0,1,6.32-3.79,11.6,11.6,0,0,1,9.82-.18,16.57,16.57,0,0,1,4.69,2.87,12.48,12.48,0,0,1,4.77,9.77,16.13,16.13,0,0,1-1.31,6.23,18.06,18.06,0,0,1-4,5.84,66.07,66.07,0,0,1-22.91,14.8,77.49,77.49,0,0,1-28.33,5.23,78.64,78.64,0,0,1-29.51-5.61A73.91,73.91,0,0,1,763,177.58a74.68,74.68,0,0,1-16.52-23.83,71.49,71.49,0,0,1-5.9-28.83,75.75,75.75,0,0,1,5.84-29.45,74.7,74.7,0,0,1,16.44-24.36,76.08,76.08,0,0,1,54-22m0-2a78.15,78.15,0,0,0-55.42,22.58,76.2,76.2,0,0,0-16.88,25,77.57,77.57,0,0,0-6,30.22,73.38,73.38,0,0,0,6.07,29.64,76.73,76.73,0,0,0,17,24.45,75.79,75.79,0,0,0,25,16.34,80.56,80.56,0,0,0,30.26,5.76,79.5,79.5,0,0,0,29.06-5.36,68.06,68.06,0,0,0,23.59-15.26,20.09,20.09,0,0,0,4.43-6.48,18.19,18.19,0,0,0,1.46-7,14.54,14.54,0,0,0-5.46-11.28,18.48,18.48,0,0,0-5.26-3.21,14.23,14.23,0,0,0-5.24-1.15,14.54,14.54,0,0,0-6.14,1.36,37.21,37.21,0,0,0-6.69,4c-2.6,1.91-4.12,3-4.91,3.63a42.43,42.43,0,0,1-13,6.56,51.94,51.94,0,0,1-13.9,1.77,40.35,40.35,0,0,1-17.11-3.75,44,44,0,0,1-14-10.17,46.48,46.48,0,0,1-9-14.29,44,44,0,0,1-3.22-16.37,42.24,42.24,0,0,1,3.23-16A48.77,48.77,0,0,1,783.45,94a46,46,0,0,1,13.39-10.09,40.12,40.12,0,0,1,16.52-4.18h.08a56.72,56.72,0,0,1,14.76,1.77A43.17,43.17,0,0,1,841.62,88l0,0,0,0c3.95,3,6.86,5.11,8.39,6a17.42,17.42,0,0,0,9.17,3,14.17,14.17,0,0,0,5-1.08,19.29,19.29,0,0,0,5.36-3.16,14.56,14.56,0,0,0,5.74-11.57c0-5-1.92-9.4-5.89-13.48A68.13,68.13,0,0,0,845.9,52.48a79.58,79.58,0,0,0-29.06-5.37Z"/><path class="cls-1" d="M544.92,66.71l3.2-4.13q3.76-4.84,7.53-9.65a.79.79,0,0,1,.94-.24.83.83,0,0,1-.19,1.11q-3,3.26-5.94,6.61Q547.66,63.58,544.92,66.71Z"/><path class="cls-11" d="M366.48,200.28a76.59,76.59,0,0,1-29.6-5.77,75,75,0,0,1-46.56-69.75V16.3a14,14,0,0,1,4.57-10.77A14.3,14.3,0,0,1,305.45,1a15.46,15.46,0,0,1,11,4.32,15,15,0,0,1,4.77,11V45.36h47.06a15.23,15.23,0,0,1,15.13,15.13,12.43,12.43,0,0,1-1.17,5.3,16.12,16.12,0,0,1-3.3,4.72,14.33,14.33,0,0,1-10.66,4.3H323.16a1.94,1.94,0,0,0-1.93,1.93v48.34a46.45,46.45,0,0,0,2.59,15.51h0l.08.21c.08.24.17.48.25.71l.09.17v.06l.37.91a44,44,0,0,0,9.61,14.47A42.81,42.81,0,0,0,348.75,167a46.38,46.38,0,0,0,17.73,3.39,61.3,61.3,0,0,0,12.16-1.79c2.32-.69,4.73-1.6,7.53-2.64l1.39-.52a17.74,17.74,0,0,1,4.71-.8l.86,0a6.5,6.5,0,0,1,1.71.27,8.93,8.93,0,0,1,2.4,1l.65.34.59.35.34.21.46.28.34.22c.15.09.3.18.45.29s.35.27.52.41l.3.24.38.32c.17.15.32.31.48.47l.27.27.34.35c.15.17.28.34.42.51l.25.32.29.36c.14.19.26.38.38.57l.22.34c.09.12.17.24.25.37s.24.43.36.66l.17.31c.07.12.13.24.19.37s.25.52.36.79l.13.28c0,.1.09.2.13.31.19.46.36.93.51,1.4a14.59,14.59,0,0,1-1,12.27,9.36,9.36,0,0,1-1.91,2.11c-.32.26-1.06.8-1.46,1.07a58.06,58.06,0,0,1-8.58,4A74.86,74.86,0,0,1,366.48,200.28Z"/><path class="cls-11" d="M305.45,2a14.52,14.52,0,0,1,10.33,4.05,14.06,14.06,0,0,1,4.45,10.25V46.36h48.06a14.24,14.24,0,0,1,14.13,14.13,11.44,11.44,0,0,1-1.08,4.88,15.15,15.15,0,0,1-3.09,4.43,13.38,13.38,0,0,1-10,4H323.16a2.93,2.93,0,0,0-2.93,2.93v48.34a47.36,47.36,0,0,0,2.65,15.84c0,.06.05.12.07.19a0,0,0,0,0,0,0c.09.26.19.53.29.79,0,0,0,0,0,0l.42,1.05a45,45,0,0,0,9.83,14.81,43.86,43.86,0,0,0,14.85,10,47.48,47.48,0,0,0,18.11,3.46,64.72,64.72,0,0,0,12.37-1.81c2.82-.84,5.65-1.94,9.06-3.21a17.46,17.46,0,0,1,4.37-.74h.85a5.84,5.84,0,0,1,1.49.24,12.4,12.4,0,0,1,2.81,1.27c.11.06.8.49.91.54s.39.25.58.38.39.22.57.35.41.32.61.49a6.4,6.4,0,0,1,.5.41c.2.18.38.37.56.56s.31.3.45.46.34.41.51.62.27.32.39.49l.46.69.34.51c.15.25.28.51.41.76l.28.51c.14.28.26.57.39.87.06.14.13.29.19.44.18.44.35.89.49,1.34a13.62,13.62,0,0,1-1,11.45,7.79,7.79,0,0,1-1.69,1.84c-.29.24-1,.77-1.37,1a56.86,56.86,0,0,1-8.38,3.88,74,74,0,0,1-26.19,4.6,75.71,75.71,0,0,1-29.22-5.69,74,74,0,0,1-45.94-68.83V16.3a13.09,13.09,0,0,1,4.25-10l0,0,0,0A13.33,13.33,0,0,1,305.45,2m0-2a15.24,15.24,0,0,0-11.21,4.75l-.08.08,0,0a15,15,0,0,0-4.81,11.43V124.76a76.51,76.51,0,0,0,47.17,70.68,77.85,77.85,0,0,0,30,5.84,76,76,0,0,0,26.9-4.73,58.2,58.2,0,0,0,8.65-4l.06,0,.06,0c.43-.29,1.2-.85,1.55-1.14a10.12,10.12,0,0,0,2.13-2.36A15.53,15.53,0,0,0,407,175.88c-.16-.49-.34-1-.53-1.47-.05-.12-.1-.23-.16-.35l-.06-.14-.05-.12c-.12-.28-.24-.56-.38-.84l-.21-.4-.09-.16-.09-.16c-.12-.23-.24-.46-.38-.69s-.18-.28-.27-.42l-.1-.15-.1-.15c-.14-.21-.27-.42-.42-.62s-.22-.29-.33-.42l-.12-.15-.11-.14c-.15-.19-.3-.38-.47-.57l-.38-.39-.13-.13-.12-.13c-.17-.18-.34-.35-.52-.51l-.45-.37-.14-.11-.13-.11-.58-.46-.51-.32-.15-.1-.16-.1a5.84,5.84,0,0,0-.53-.33l-.3-.18-.66-.39-.62-.33a10.48,10.48,0,0,0-2.66-1.11,7.63,7.63,0,0,0-1.93-.29h-.87a19.49,19.49,0,0,0-5.05.87l-1.39.52c-2.76,1-5.14,1.92-7.47,2.62a60.33,60.33,0,0,1-11.87,1.75A45.39,45.39,0,0,1,349.13,166,42,42,0,0,1,335,156.44a43.09,43.09,0,0,1-9.41-14.17l-.22-.55-.05-.13v-.15l-.2-.36c-.08-.19-.15-.39-.21-.58l-.06-.17-.1-.28h0a45.4,45.4,0,0,1-2.46-15V76.74a.93.93,0,0,1,.93-.93h45.13a15.29,15.29,0,0,0,11.38-4.6,17.23,17.23,0,0,0,3.49-5,13.45,13.45,0,0,0,1.26-5.72,16.25,16.25,0,0,0-16.13-16.13H322.23V16.3a16,16,0,0,0-5-11.66l0,0,0,0A16.4,16.4,0,0,0,305.45,0Z"/><path class="cls-1" d="M490.47,86.75A37.61,37.61,0,0,0,455.84,139c.08.21.17.42.27.62a2.71,2.71,0,0,0,2.35,1.35,3,3,0,0,0,1.22-.28l.23-.13a156.35,156.35,0,0,0,15.66-10c13.87-10.08,27.64-22.48,39.76-34.43A37.41,37.41,0,0,0,490.47,86.75Z"/><path d="M524.52,85.74a2.72,2.72,0,0,1-.14.86l-1.57,1.67a.86.86,0,0,1-.21.07l-.26.07a2.51,2.51,0,0,1-.55.06,2.65,2.65,0,0,1-1.58-.52.78.78,0,0,1-.21-.16,2.6,2.6,0,0,1-.56-.67c-.1-.2-.19-.41-.27-.62a2.73,2.73,0,1,1,5.35-.76Z"/><path class="cls-1" d="M519.31,100.22a409.35,409.35,0,0,1-30.72,32.66c-6.57,6.2-13.5,12.05-20.42,17.52l0,0-.52.4,0,0a2.39,2.39,0,0,0,0,3.36l0,0a2.51,2.51,0,0,0,.55.42,0,0,0,0,1,0,0,37.61,37.61,0,0,0,51.13-54.43Z"/><path class="cls-11" d="M561.4,94.54a79.66,79.66,0,0,0-16.58-24.87c-.22-.22-.43-.43-.65-.62l-.6.8-.61.81-8.31,10.59-.36.47c-1.39,1.79-2.83,3.64-4.33,5.52l-1.14,1.45-2.32,2.86-.3.38c-.06.09-1.18,1.5-1.18,1.5h0l-.08.1a1.6,1.6,0,0,0-.26.89,1.64,1.64,0,0,0,.31,1,.61.61,0,0,0,.12.16l.06.06,0,0A44.39,44.39,0,0,1,532.07,107a44.94,44.94,0,0,1-24.15,58.71,45.21,45.21,0,0,1-34.74,0,44.94,44.94,0,0,1-13.73-9l-1.22-1.17-1.36,1c-9.93,7.36-19.57,13.91-27.32,19.17-4.62,3.14-8.61,5.86-11.88,8.2a7.49,7.49,0,0,0-1.54,1.14,8.37,8.37,0,0,0-2.74,6.22v47.32a16.69,16.69,0,0,0,1.31,6.6,14.61,14.61,0,0,0,3.54,5.19l.07.06.06.07a15,15,0,0,0,11.31,4.85c4.78,0,8.61-1.57,11.38-4.66a17.37,17.37,0,0,0,4.27-12.11V186.44l3.1,2.05a76.35,76.35,0,0,0,71.69,6.63,77.5,77.5,0,0,0,41.36-41.27,76.88,76.88,0,0,0-.08-59.31Z"/><path class="cls-11" d="M520.12,53.1A76.59,76.59,0,0,0,460.9,53a77.18,77.18,0,0,0-24.78,16.65,78.21,78.21,0,0,0-16.74,24.86,75.67,75.67,0,0,0-6,29.73V150a7.68,7.68,0,0,0,7.67,7.67,7.31,7.31,0,0,0,1.56-.16A147.9,147.9,0,0,0,449.8,148l1.94-.9-1-1.88c-.63-1.15-1.22-2.37-1.75-3.62a44.74,44.74,0,0,1,0-34.6,45.39,45.39,0,0,1,9.74-14.39A44.38,44.38,0,0,1,473.11,83a45.35,45.35,0,0,1,45.55,6.27,1.83,1.83,0,0,0,.38.29l0,0,0,0a1.36,1.36,0,0,0,.57.33A1.12,1.12,0,0,0,520,90l.29,0a1.58,1.58,0,0,0,.38,0,1.77,1.77,0,0,0,.93-.57h0l1.26-1.18,1.57-1.67L541,68.83l.64-.77.64-.78A77.92,77.92,0,0,0,520.12,53.1Z"/><path class="cls-1" d="M205.6,37.43a19.66,19.66,0,0,0,22,3.77A19.37,19.37,0,0,0,224,5a19.63,19.63,0,0,0-20.84,8c-5.19,7.57-3.93,18,2.4,24.46,2.71,2.76,7-1.48,4.24-4.24a13.47,13.47,0,0,1-3.77-7.4c0-.16-.06-.32-.08-.47.06.43,0-.1,0-.16,0-.37-.05-.74-.06-1.11s0-.74,0-1.11c0-.19.09-1.14,0-.79a15.94,15.94,0,0,1,.43-2c.1-.36.22-.72.34-1.07l.17-.45c.08-.19.08-.2,0,0l.13-.3A13.52,13.52,0,0,1,212.82,12a12.08,12.08,0,0,1,3.8-1.4c.36-.08.73-.15,1.09-.2-.45.06.51,0,.63,0a23.83,23.83,0,0,1,2.39,0l.23,0,.39.06c.37.06.73.14,1.09.23a14.43,14.43,0,0,1,2.14.69c-.33-.14.51.25.61.3.34.17.68.35,1,.55a12.56,12.56,0,0,1,1.68,1.19,13.27,13.27,0,0,1,4.41,7.12c.08.31.15.62.2.93s.08.42.11.63c0-.07,0-.36,0,0a18.87,18.87,0,0,1,0,2.38c0,.21,0,.42,0,.63,0,0,0,.52,0,.24s0,.23,0,.23c0,.21-.07.42-.12.63a15.59,15.59,0,0,1-.66,2.31,13.77,13.77,0,0,1-5,6.27A13.22,13.22,0,0,1,218,37.05c-.06,0-.71-.07-.39,0l-.39-.06c-.42-.08-.83-.17-1.25-.27s-.82-.23-1.23-.37l-.6-.22c-.49-.19.31.14-.18-.08a13.63,13.63,0,0,1-4.14-2.83C207.08,30.48,202.84,34.72,205.6,37.43Z"/><rect class="cls-1" x="248.6" y="-7.69" width="3.1" height="63.37" rx="0.45" transform="translate(274.15 -226.16) rotate(90)"/><path class="cls-11" d="M534.29,81.72c-1.39,1.79-2.83,3.64-4.33,5.52Z"/><line class="cls-12" x1="544.17" y1="69.05" x2="543.57" y2="69.85"/><path class="cls-1" d="M585.9,10.43c-.29,1.12-.56,2.14-.82,3.16Q581.89,25.82,578.7,38c-.53,2-1.05,4-1.58,6a1.44,1.44,0,0,1-2.19,1L561.85,39.5l-.4-.18,24-28.4,0-.05-.52.48Q571,24.4,557.06,37.44a.84.84,0,0,0-.27,1c.8,3,1.57,6,2.41,9l1.55-7.28,5.44,2.34-1.48,1.72-4.94,5.73c-.17.2-.33.4-.64.35s-.4-.34-.46-.61q-1.45-5.56-2.9-11.15a.6.6,0,0,0-.51-.53q-5.18-1.29-10.36-2.63c-.32-.08-.71-.08-.77-.53s.33-.55.62-.72L570,19.54l15.45-8.9Z"/></g></g></svg>